<svg width="28" height="28" viewBox="0 0 28 28" fill="none" xmlns="http://www.w3.org/2000/svg">
<g clip-path="url(#clip0_4839_23961)">
<path fill-rule="evenodd" clip-rule="evenodd" d="M23.189 14.2194C23.1898 13.559 23.13 12.8999 23.0104 12.25H13.7578V15.9731H19.0438C18.9341 16.5613 18.7039 17.1217 18.3671 17.6204C18.0303 18.1191 17.5938 18.5458 17.0841 18.8746V21.2902H20.2577C22.1147 19.6145 23.1862 17.1464 23.1862 14.2176L23.189 14.2194Z" fill="#3E82F1"/>
<path fill-rule="evenodd" clip-rule="evenodd" d="M13.7614 23.6242C16.4132 23.6242 18.6366 22.7628 20.2613 21.293L17.0877 18.8775C16.2078 19.4551 15.0827 19.7969 13.7614 19.7969C11.203 19.7969 9.03794 18.1031 8.26627 15.8281H4.98438V18.3226C5.80192 19.9168 7.05571 21.257 8.60565 22.1932C10.1556 23.1294 11.9407 23.6249 13.7614 23.6242Z" fill="#32A753"/>
<path fill-rule="evenodd" clip-rule="evenodd" d="M8.26395 15.8271C7.85314 14.6414 7.85314 13.3559 8.26395 12.1702V9.67578H4.98206C4.29518 11.0174 3.9375 12.4976 3.9375 13.9986C3.9375 15.4996 4.29518 16.9799 4.98206 18.3215L8.26395 15.8271Z" fill="#F9BB00"/>
<path fill-rule="evenodd" clip-rule="evenodd" d="M13.7595 8.20233C15.202 8.20233 16.4964 8.68834 17.5142 9.64222L20.3307 6.88122C18.6301 5.32798 16.4067 4.375 13.7614 4.375C11.9406 4.37434 10.1556 4.8698 8.60565 5.80603C7.05571 6.74226 5.80192 8.08239 4.98438 9.67668L8.26627 12.1711C9.03793 9.89611 11.203 8.20233 13.7614 8.20233H13.7595Z" fill="#E74133"/>
</g>
<defs>
<clipPath id="clip0_4839_23961">
<rect width="19.25" height="19.25" fill="white" transform="translate(3.9375 4.375)"/>
</clipPath>
</defs>
</svg>
